<!-- icon666.com - MILLIONS vector ICONS FREE --><svg width="50" height="50" id="Layer_1" viewBox="0 0 512 600" xmlns="http://www.w3.org/2000/svg" data-name="Layer 1"><circle cx="339.182" cy="309.236" r="21.284" fill="#000000" style="fill: rgb(255, 255, 255);"></circle><path d="m423 262h-254v94h254zm-83.818 80.52a33.284 33.284 0 1 1 33.283-33.284 33.322 33.322 0 0 1 -33.283 33.284z" fill="#000000" style="fill: rgb(255, 255, 255);"></path><path d="m339.182 75.008a21.284 21.284 0 1 0 21.283 21.283 21.307 21.307 0 0 0 -21.283-21.283z" fill="#000000" style="fill: rgb(255, 255, 255);"></path><path d="m102 262h55v94h-55z" fill="#000000" style="fill: rgb(255, 255, 255);"></path><path d="m355 156h55v94h-55z" fill="#000000" style="fill: rgb(255, 255, 255);"></path><path d="m102 49h55v95h-55z" fill="#000000" style="fill: rgb(255, 255, 255);"></path><circle cx="172.818" cy="202.764" r="21.284" fill="#000000" style="fill: rgb(255, 255, 255);"></circle><path d="m343 156h-254v94h254zm-170.182 80.047a33.284 33.284 0 1 1 33.282-33.283 33.321 33.321 0 0 1 -33.282 33.283z" fill="#000000" style="fill: rgb(255, 255, 255);"></path><path d="m423 49h-254v95h254zm-83.818 80.575a33.284 33.284 0 1 1 33.283-33.284 33.322 33.322 0 0 1 -33.283 33.284z" fill="#000000" style="fill: rgb(255, 255, 255);"></path><path d="m89 463h254v-95h-254zm83.818-80.575a33.284 33.284 0 1 1 -33.283 33.284 33.322 33.322 0 0 1 33.283-33.284z" fill="#000000" style="fill: rgb(255, 255, 255);"></path><path d="m422 156v94h7.018 46.982v-94h-46.982z" fill="#000000" style="fill: rgb(255, 255, 255);"></path><path d="m90 144v-95h-54v95h46.982z" fill="#000000" style="fill: rgb(255, 255, 255);"></path><path d="m422 368v95h54v-95h-46.982z" fill="#000000" style="fill: rgb(255, 255, 255);"></path><path d="m355 368h55v95h-55z" fill="#000000" style="fill: rgb(255, 255, 255);"></path><path d="m172.818 436.992a21.284 21.284 0 1 0 -21.283-21.283 21.307 21.307 0 0 0 21.283 21.283z" fill="#000000" style="fill: rgb(255, 255, 255);"></path><path d="m90 356v-94h-7.018-46.982v94h46.982z" fill="#000000" style="fill: rgb(255, 255, 255);"></path></svg>